<svg version="1.1" xmlns="http://www.w3.org/2000/svg" viewBox="0 0 342.90909090909076 64.40476190476193" width="1028.7272727272723" height="193.21428571428578">
  <!-- svg-source:excalidraw -->
  
  <defs>
    <style>
      @font-face {
        font-family: "Virgil";
        src: url("https://excalidraw.com/Virgil.woff2");
      }
      @font-face {
        font-family: "Cascadia";
        src: url("https://excalidraw.com/Cascadia.woff2");
      }
    </style>
  </defs>
  <g transform="translate(10 10.404761904761926) rotate(0 42 22)"><text x="0" y="35" font-family="Cascadia, Segoe UI Emoji" font-size="36px" fill="#c92a2a" text-anchor="start" style="white-space: pre;" direction="ltr">262x</text></g><g transform="translate(290.90909090909076 10) rotate(0 21 22)"><text x="0" y="35" font-family="Cascadia, Segoe UI Emoji" font-size="36px" fill="#2b8a3e" text-anchor="start" style="white-space: pre;" direction="ltr">4x</text></g><g><g transform="translate(102 37) rotate(0 91.48688823928586 -1.4651728786528118)"><path d="M0.5868289388716221 -0.3802917279303074 C31.137713400274514 -0.8697886822124323, 153.21214789524674 -2.375615211079518, 183.53800107613205 -2.550054029375315 M-0.5642245975602418 -1.6255488304328174 C29.85535291726701 -1.9926639375121644, 152.52240667129865 -0.9942364086738478, 182.87240617747418 -1.3014071435760708" stroke="#000000" stroke-width="4" fill="none"></path></g><g transform="translate(102 37) rotate(0 91.48688823928586 -1.4651728786528118)"><path d="M154.04695328236357 9.853516974422933 C162.7350988080566 4.779168163262797, 173.61114051585747 3.1342138469251326, 183.1734474564623 -1.737829107893631 M153.93031346895532 9.533083944517971 C164.62075154496637 4.725355547952859, 175.20774023638452 1.5710272339859452, 182.85117072450927 -0.35795721235685063" stroke="#000000" stroke-width="4" fill="none"></path></g><g transform="translate(102 37) rotate(0 91.48688823928586 -1.4651728786528118)"><path d="M154.0486629279944 -10.6676915539009 C162.8024309407769 -9.187738744987179, 173.67792660282134 -4.278399801830416, 183.1734474564623 -1.737829107893631 M153.93202311458614 -10.988124583805861 C164.73706664129477 -8.125675124980788, 175.3234163218483 -3.6098319315522254, 182.85117072450927 -0.35795721235685063" stroke="#000000" stroke-width="4" fill="none"></path></g></g></svg>